<svg width="56" height="56" viewBox="0 0 56 56" fill="none" xmlns="http://www.w3.org/2000/svg">
<rect width="56" height="56" rx="10" fill="white"/>
<path d="M21.353 30.4141H15.0117L13.9043 34H8.96045L16.0005 14.8047H20.3511L27.4438 34H22.4736L21.353 30.4141ZM16.1191 26.8413H20.2456L18.1758 20.1836L16.1191 26.8413ZM36.7488 30.4404H45.9246V34H30.9744V31.561L40.1238 18.3774H30.9217V14.8047H45.8323V17.1777L36.7488 30.4404Z" fill="black"/>
<path d="M10.5039 43.4922H14.0146V44H9.89844V36.8906H10.5039V43.4922ZM17.085 40.7676L19.2578 36.8906H19.9512L17.3828 41.3242V44H16.7822V41.3242L14.2188 36.8906H14.9316L17.085 40.7676ZM24.6426 41.041H22.5771V44H21.9717V36.8906H24.2812C25.0397 36.8906 25.6322 37.0745 26.0586 37.4424C26.485 37.8102 26.6982 38.3245 26.6982 38.9854C26.6982 39.4411 26.5648 39.8431 26.2979 40.1914C26.0309 40.5397 25.6729 40.7806 25.2236 40.9141L27.001 43.9365V44H26.3613L24.6426 41.041ZM22.5771 40.5283H24.418C24.9225 40.5283 25.3278 40.3851 25.6338 40.0986C25.9398 39.8122 26.0928 39.4411 26.0928 38.9854C26.0928 38.484 25.9333 38.0951 25.6143 37.8184C25.2952 37.5417 24.8477 37.4033 24.2715 37.4033H22.5771V40.5283ZM30.0664 44H29.4658V36.8906H30.0664V44ZM38.0342 41.7832C37.9528 42.5319 37.6842 43.1048 37.2285 43.502C36.776 43.8991 36.1722 44.0977 35.417 44.0977C34.8896 44.0977 34.4225 43.9658 34.0156 43.7021C33.612 43.4385 33.2995 43.0658 33.0781 42.584C32.8568 42.099 32.7445 41.5456 32.7412 40.9238V40.001C32.7412 39.3695 32.8519 38.8096 33.0732 38.3213C33.2946 37.833 33.612 37.457 34.0254 37.1934C34.4421 36.9264 34.9206 36.793 35.4609 36.793C36.2227 36.793 36.8232 36.9997 37.2627 37.4131C37.7054 37.8232 37.9626 38.3913 38.0342 39.1172H37.4287C37.279 37.9095 36.623 37.3057 35.4609 37.3057C34.8164 37.3057 34.3021 37.5465 33.918 38.0283C33.5371 38.5101 33.3467 39.1758 33.3467 40.0254V40.8945C33.3467 41.7148 33.5322 42.3691 33.9033 42.8574C34.2777 43.3457 34.7822 43.5898 35.417 43.5898C36.0452 43.5898 36.5189 43.4401 36.8379 43.1406C37.1569 42.8379 37.3538 42.3854 37.4287 41.7832H38.0342ZM44.5176 42.252C44.5176 41.8581 44.3792 41.5472 44.1025 41.3193C43.8258 41.0882 43.3197 40.8701 42.584 40.665C41.8483 40.4567 41.3112 40.2305 40.9727 39.9863C40.4909 39.6413 40.25 39.1888 40.25 38.6289C40.25 38.0853 40.473 37.6442 40.9189 37.3057C41.3682 36.9639 41.9411 36.793 42.6377 36.793C43.1097 36.793 43.5312 36.8841 43.9023 37.0664C44.2767 37.2487 44.5664 37.5026 44.7715 37.8281C44.9766 38.1536 45.0791 38.5166 45.0791 38.917H44.4736C44.4736 38.432 44.3076 38.043 43.9756 37.75C43.6436 37.4538 43.1976 37.3057 42.6377 37.3057C42.0941 37.3057 41.6611 37.4277 41.3389 37.6719C41.0166 37.9128 40.8555 38.2285 40.8555 38.6191C40.8555 38.9805 41.0003 39.2751 41.29 39.5029C41.5798 39.7308 42.0436 39.9326 42.6816 40.1084C43.3197 40.2809 43.8031 40.4616 44.1318 40.6504C44.4606 40.8359 44.708 41.0589 44.874 41.3193C45.04 41.5798 45.123 41.8874 45.123 42.2422C45.123 42.8021 44.8984 43.2513 44.4492 43.5898C44.0033 43.9284 43.4141 44.0977 42.6816 44.0977C42.1803 44.0977 41.7197 44.0081 41.2998 43.8291C40.8831 43.6501 40.5658 43.3994 40.3477 43.0771C40.1328 42.7549 40.0254 42.3854 40.0254 41.9688H40.626C40.626 42.4701 40.8132 42.8656 41.1875 43.1553C41.5618 43.445 42.0599 43.5898 42.6816 43.5898C43.235 43.5898 43.6794 43.4678 44.0146 43.2236C44.3499 42.9795 44.5176 42.6556 44.5176 42.252Z" fill="black"/>
</svg>
